<svg id="Capa_1" version="1.1" viewBox="0 0 150 150" xml:space="preserve" xmlns="http://www.w3.org/2000/svg" enable-background="new 0 0 150 150"><path d="M85.1 28.5c-3.2-1-6.6-1.6-10.1-1.6-10.3 0-19.5 4.7-25.7 12l15.9 13.3 19.9-23.7z" fill="#af3227" class="fill-1a73e8"></path><path d="M49.3 38.9c-4.9 5.8-7.9 13.4-7.9 21.6 0 6.3 1.3 11.4 3.3 16l20.4-24.2-15.8-13.4z" fill="#af3227" class="fill-ea4335"></path><path d="M75 47.6c7.1 0 12.8 5.7 12.8 12.8 0 3.2-1.1 6.1-3 8.3 0 0 10.1-12.1 20-23.8-4.1-7.8-11.1-13.8-19.6-16.5l-20 23.8c2.3-2.8 5.8-4.6 9.8-4.6" fill="#af3227" class="fill-4285f4"></path><path d="M75 73.3c-7.1 0-12.8-5.7-12.8-12.8 0-3.1 1.1-6 3-8.2L44.8 76.5C48.2 84.2 54 90.4 60 98.2l24.8-29.5c-2.3 2.8-5.9 4.6-9.8 4.6" fill="#af3227" class="fill-fbbc04"></path><path d="M84.3 106.3c11.2-17.5 24.3-25.5 24.3-45.8 0-5.6-1.4-10.8-3.8-15.5L60 98.2c1.9 2.5 3.8 5.1 5.7 8.1 6.8 10.5 4.9 16.8 9.3 16.8s2.5-6.3 9.3-16.8" fill="#af3227" class="fill-34a853"></path></svg>